<svg width="24" height="24" viewBox="0 0 24 24" fill="none" xmlns="http://www.w3.org/2000/svg">
<path fill-rule="evenodd" clip-rule="evenodd" d="M3.48877 6.00387C2.76311 7.24787 2.52428 8.97403 2.97014 10.7575C3.13059 11.3992 3.59703 12.2243 4.33627 13.174C5.06116 14.1052 5.9864 15.0787 6.96636 16.0127C8.90945 17.8648 11.0006 19.4985 12 20.254C12.9994 19.4985 15.0905 17.8648 17.0336 16.0127C18.0136 15.0787 18.9388 14.1052 19.6637 13.174C20.403 12.2243 20.8694 11.3992 21.0299 10.7575C21.4757 8.97403 21.2369 7.24788 20.5112 6.00387C19.8029 4.78965 18.6202 4 17 4C15.5904 4 14.5969 5.04228 13.8944 6.44721C13.5569 7.12228 13.3275 7.80745 13.1823 8.33015C13.1102 8.58959 13.0602 8.80435 13.0286 8.95172C12.9167 9.47392 12.3143 9.5 12 9.5C11.6857 9.5 11.0823 9.46905 10.9714 8.95172C10.9398 8.80436 10.8898 8.58959 10.8177 8.33015C10.6725 7.80745 10.4431 7.12229 10.1056 6.44722C9.40308 5.04228 8.40956 4 6.99998 4C5.37979 4 4.19706 4.78965 3.48877 6.00387ZM12 5.77011C12.0341 5.69784 12.0693 5.62535 12.1056 5.55279C12.9031 3.95772 14.4096 2 17 2C19.3798 2 21.1971 3.21035 22.2388 4.99613C23.2631 6.75212 23.5243 9.02597 22.9701 11.2425C22.7076 12.2927 22.0354 13.3832 21.2419 14.4025C20.4341 15.4402 19.4327 16.4891 18.4135 17.4605C16.3742 19.4042 14.1957 21.1022 13.181 21.8683C12.4803 22.3974 11.5197 22.3974 10.819 21.8683C9.80433 21.1022 7.62583 19.4042 5.58648 17.4605C4.56733 16.4891 3.56586 15.4402 2.75806 14.4025C1.96461 13.3832 1.2924 12.2927 1.02986 11.2425C0.475714 9.02597 0.736884 6.75213 1.76121 4.99613C2.80291 3.21035 4.62017 2 6.99998 2C9.59038 2 11.0969 3.95772 11.8944 5.55278C11.9307 5.62535 11.9659 5.69784 12 5.77011Z" fill="#0F0F0F"/>
</svg>
