<svg width="24" height="24" viewBox="0 0 24 24" fill="none" xmlns="http://www.w3.org/2000/svg">
<path fill-rule="evenodd" clip-rule="evenodd" d="M6.00001 2C6.00001 1.44772 6.44773 1 7.00001 1C7.5523 1 8.00001 1.44772 8.00001 2V5.14641C9.44326 5.57824 10.4951 6.91628 10.4951 8.50002C10.4951 10.0837 9.44326 11.4218 8.00001 11.8536V22C8.00001 22.5523 7.5523 23 7.00001 23C6.44773 23 6.00001 22.5523 6.00001 22V11.8565C4.55177 11.4278 3.49515 10.0873 3.49515 8.50002C3.49515 6.91273 4.55177 5.57223 6.00001 5.14351V2ZM6.99515 10.0049C6.16404 10.0049 5.49029 9.33113 5.49029 8.50002C5.49029 7.6689 6.16404 6.99515 6.99515 6.99515C7.82626 6.99515 8.50001 7.6689 8.50001 8.50002C8.50001 9.33113 7.82626 10.0049 6.99515 10.0049Z" fill="#0F0F0F"/>
<path fill-rule="evenodd" clip-rule="evenodd" d="M18 18.8565C19.4483 18.4278 20.5049 17.0873 20.5049 15.5C20.5049 13.9127 19.4483 12.5722 18 12.1435V2C18 1.44772 17.5523 1 17 1C16.4477 1 16 1.44772 16 2V12.1464C14.5568 12.5782 13.5049 13.9163 13.5049 15.5C13.5049 17.0837 14.5568 18.4218 16 18.8536V22C16 22.5523 16.4477 23 17 23C17.5523 23 18 22.5523 18 22V18.8565ZM17.0049 17.0049C16.1738 17.0049 15.5 16.3311 15.5 15.5C15.5 14.6689 16.1738 13.9951 17.0049 13.9951C17.836 13.9951 18.5097 14.6689 18.5097 15.5C18.5097 16.3311 17.836 17.0049 17.0049 17.0049Z" fill="#0F0F0F"/>
</svg>
